<svg id="Layer_1" data-name="Layer 1" xmlns="http://www.w3.org/2000/svg" viewBox="0 0 512 512">
  <title>Artboard 1</title>
  <path d="M508.92,452l-237.31-411a18,18,0,0,0-31.26,0L2.43,453A18.05,18.05,0,0,0,18.06,480.1H493.95a18.06,18.06,0,0,0,15-28.15Zm-459.6-8L256,86.06,462.63,444Zm0,0" style="fill: #871642"/>
  <path d="M239.85,379.61c0-11.53,8-19.88,18.89-19.88,11.53,0,18.91,8.35,18.91,19.88,0,11.22-7.38,19.85-18.91,19.85C247.52,399.47,239.85,390.83,239.85,379.61Zm8-45.84L243.37,180h30.76l-4.49,153.8Z" style="fill: #871642"/>
</svg>
